{"title":"Lucy.2014.KORSUB.720p.WEBRip.x264.AC3-VAiN","uid":11155518,"size":1494706565,"categoryP":"video","categoryS":"hd___movies","magnet":"?xt=urn:btih:e0bc9b8f8a26f72d65e9ddb9912014222bb73266&amp;dn=Lucy.2014.KORSUB.720p.WEBRip.x264.AC3-VAiN&amp;tr=udp%3A%2F%2Ftracker.openbittorrent.com%3A80&amp;tr=udp%3A%2F%2Fopen.demonii.com%3A1337&amp;tr=udp%3A%2F%2Ftracker.coppersurfer.tk%3A6969&amp;tr=udp%3A%2F%2Fexodus.desync.com%3A6969","seeders":5,"leechers":0,"uploader":"ali1997a","files":5,"time":1412411254,"description":"General\nFormat                                   : AVI\nFormat/Info                              : Audio Video Interleave\nFile size                                : 1.37 GiB\nDuration                                 : 1h 24mn\nOverall bit rate                         : 2 322 Kbps\nWriting application                      : VirtualDubMod 1.5.10.2 (build 2540/release)\nWriting library                          : VirtualDubMod build 2540/release\n\nVideo\nID                                       : 0\nFormat                                   : MPEG-4 Visual\nFormat profile                           : Advanced Simple@L5\nFormat settings, BVOP                    : 1\nFormat settings, QPel                    : No\nFormat settings, GMC                     : No warppoints\nFormat settings, Matrix                  : Default (MPEG)\nCodec ID                                 : XVID\nCodec ID/Hint                            : XviD\nDuration                                 : 1h 24mn\nBit rate                                 : 2 118 Kbps\nWidth                                    : 720 pixels\nHeight                                   : 400 pixels\nDisplay aspect ratio                     : 16:9\nFrame rate                               : 30.000 fps\nColor space                              : YUV\nChroma subsampling                       : 4:2:0\nBit depth                                : 8 bits\nScan type                                : Progressive\nCompression mode                         : Lossy\nBits/(Pixel*Frame)                       : 0.245\nStream size                              : 1.25 GiB (91%)\nWriting library                          : XviD 1.2.1 (UTC 2008-12-04)\n\nAudio\nID                                       : 1\nFormat                                   : AC-3\nFormat/Info                              : Audio Coding 3\nMode extension                           : CM (complete main)\nFormat settings, Endianness              : Big\nCodec ID                                 : 2000\nDuration                                 : 1h 24mn\nBit rate mode                            : Constant\nBit rate                                 : 192 Kbps\nChannel(s)                               : 2 channels\nChannel positions                        : Front: L R\nSampling rate                            : 44.1 KHz\nBit depth                                : 16 bits\nCompression mode                         : Lossy\nDelay relative to video                  : 200ms\nStream size                              : 116 MiB (8%)\nAlignment                                : Split accross interleaves\nInterleave, duration                     : 33 ms (1.00 video frame)\nInterleave, preload duration             : 500 ms","torrent":{"xt":"urn:btih:e0bc9b8f8a26f72d65e9ddb9912014222bb73266","amp;dn":"Lucy.2014.KORSUB.720p.WEBRip.x264.AC3-VAiN","amp;tr":["udp%3A%2F%2Ftracker.openbittorrent.com%3A80","udp%3A%2F%2Fopen.demonii.com%3A1337","udp%3A%2F%2Ftracker.coppersurfer.tk%3A6969","udp%3A%2F%2Fexodus.desync.com%3A6969"],"infoHash":"e0bc9b8f8a26f72d65e9ddb9912014222bb73266","infoHashBuffer":{"type":"Buffer","data":[224,188,155,143,138,38,247,45,101,233,221,185,145,32,20,34,43,183,50,102]},"announce":[],"urlList":[]}}